<?xml version="1.0" encoding="utf-8"?>
<!-- Generator: Adobe Illustrator 25.2.1, SVG Export Plug-In . SVG Version: 6.00 Build 0)  -->
<svg version="1.1" id="Layer_1" xmlns="http://www.w3.org/2000/svg" xmlns:xlink="http://www.w3.org/1999/xlink" x="0px" y="0px"
	 viewBox="0 0 50 50" style="enable-background:new 0 0 50 50;" xml:space="preserve">
<style type="text/css">
	.st0{fill:#FFFFFF;}
</style>
<g>
	<path class="st0" d="M25,29.46c-0.4,0-0.78-0.16-1.06-0.44L3.46,8.54C2.87,7.95,2.87,7,3.46,6.42c0.59-0.59,1.54-0.59,2.12,0
		L25,25.84L44.42,6.42c0.59-0.59,1.54-0.59,2.12,0c0.59,0.59,0.59,1.54,0,2.12L26.06,29.02C25.78,29.3,25.4,29.46,25,29.46z"/>
</g>
<g>
	<path class="st0" d="M25,44.5c-0.38,0-0.77-0.15-1.06-0.44L3.46,23.58c-0.59-0.59-0.59-1.54,0-2.12s1.54-0.59,2.12,0L25,40.88
		l19.42-19.42c0.59-0.59,1.54-0.59,2.12,0s0.59,1.54,0,2.12L26.06,44.06C25.77,44.35,25.38,44.5,25,44.5z"/>
</g>
</svg>
